HIERARCHY
ROOT hip
{
  OFFSET 0 0 0
  CHANNELS 6 Xposition Yposition Zposition Zrotation Yrotation Xrotation
  JOINT abdomen
  {
    OFFSET 0 20.6881 -0.73152
    CHANNELS 3 Zrotation Xrotation Yrotation
    JOINT chest
    {
      OFFSET 0 11.7043 -0.48768
      CHANNELS 3 Zrotation Xrotation Yrotation
      JOINT neck
      {
        OFFSET 0 22.1894 -2.19456
        CHANNELS 3 Zrotation Xrotation Yrotation
        JOINT head
        {
          OFFSET -0.24384 7.07133 1.2192
          CHANNELS 3 Zrotation Xrotation Yrotation
          JOINT leftEye
          {
            OFFSET 4.14528 8.04674 8.04672
            CHANNELS 3 Zrotation Xrotation Yrotation
            End Site
            {
              OFFSET 1 0 0
            }
          }
          JOINT rightEye
          {
            OFFSET -3.6576 8.04674 8.04672
            CHANNELS 3 Zrotation Xrotation Yrotation
            End Site
            {
              OFFSET 1 0 0
            }
          }
        }
      }
      JOINT rCollar
      {
        OFFSET -2.68224 19.2634 -4.8768
        CHANNELS 3 Zrotation Xrotation Yrotation
        JOINT rShldr
        {
          OFFSET -8.77824 -1.95073 1.46304
          CHANNELS 3 Zrotation Xrotation Yrotation
          JOINT rForeArm
          {
            OFFSET -28.1742 -1.7115 0.48768
            CHANNELS 3 Zrotation Xrotation Yrotation
            JOINT rHand
            {
              OFFSET -22.5879 0.773209 7.07136
              CHANNELS 3 Zrotation Xrotation Yrotation
              JOINT rThumb1
              {
                OFFSET -1.2192 -0.487915 3.41376
                CHANNELS 3 Zrotation Xrotation Yrotation
                JOINT rThumb2
                {
                  OFFSET -3.37035 -0.52449 3.41376
                  CHANNELS 3 Zrotation Xrotation Yrotation
                  End Site
                  {
                    OFFSET -1.78271 -1.18214 1.43049
                  }
                }
              }
              JOINT rIndex1
              {
                OFFSET -7.75947 0.938293 5.60832
                CHANNELS 3 Zrotation Xrotation Yrotation
                JOINT rIndex2
                {
                  OFFSET -2.54057 -0.884171 1.56538
                  CHANNELS 3 Zrotation Xrotation Yrotation
                  End Site
                  {
                    OFFSET -1.62519 -0.234802 1.16502
                  }
                }
              }
              JOINT rMid1
              {
                OFFSET -8.24714 1.18213 3.41376
                CHANNELS 3 Zrotation Xrotation Yrotation
                JOINT rMid2
                {
                  OFFSET -3.10165 -0.590103 1.0647
                  CHANNELS 3 Zrotation Xrotation Yrotation
                  End Site
                  {
                    OFFSET -2.48547 -0.328903 0.83742
                  }
                }
              }
              JOINT rRing1
              {
                OFFSET -8.82822 0.546677 1.51678
                CHANNELS 3 Zrotation Xrotation Yrotation
                JOINT rRing2
                {
                  OFFSET -2.60934 -0.819778 -0.0198488
                  CHANNELS 3 Zrotation Xrotation Yrotation
                  End Site
                  {
                    OFFSET -2.33842 -0.294052 0.168128
                  }
                }
              }
              JOINT rPinky1
              {
                OFFSET -8.27202 -0.0477905 -0.4584
                CHANNELS 3 Zrotation Xrotation Yrotation
                JOINT rPinky2
                {
                  OFFSET -1.82734 -0.647385 -0.700984
                  CHANNELS 3 Zrotation Xrotation Yrotation
                  End Site
                  {
                    OFFSET -1.69225 -0.51767 -0.607171
                  }
                }
              }
            }
          }
        }
      }
      JOINT lCollar
      {
        OFFSET 2.68224 19.2634 -4.8768
        CHANNELS 3 Zrotation Xrotation Yrotation
        JOINT lShldr
        {
          OFFSET 8.77824 -1.95073 1.46304
          CHANNELS 3 Zrotation Xrotation Yrotation
          JOINT lForeArm
          {
            OFFSET 28.1742 -1.7115 0.48768
            CHANNELS 3 Zrotation Xrotation Yrotation
            JOINT lHand
            {
              OFFSET 22.5879 0.773209 7.07136
              CHANNELS 3 Zrotation Xrotation Yrotation
              JOINT lThumb1
              {
                OFFSET 1.2192 -0.487915 3.41376
                CHANNELS 3 Zrotation Xrotation Yrotation
                JOINT lThumb2
                {
                  OFFSET 3.37035 -0.52449 3.41376
                  CHANNELS 3 Zrotation Xrotation Yrotation
                  End Site
                  {
                    OFFSET 1.78271 -1.18214 1.43049
                  }
                }
              }
              JOINT lIndex1
              {
                OFFSET 7.75947 0.938293 5.60832
                CHANNELS 3 Zrotation Xrotation Yrotation
                JOINT lIndex2
                {
                  OFFSET 2.54057 -0.884171 1.56538
                  CHANNELS 3 Zrotation Xrotation Yrotation
                  End Site
                  {
                    OFFSET 1.62519 -0.234802 1.16502
                  }
                }
              }
              JOINT lMid1
              {
                OFFSET 8.24714 1.18213 3.41376
                CHANNELS 3 Zrotation Xrotation Yrotation
                JOINT lMid2
                {
                  OFFSET 3.10165 -0.590103 1.0647
                  CHANNELS 3 Zrotation Xrotation Yrotation
                  End Site
                  {
                    OFFSET 2.48547 -0.328903 0.83742
                  }
                }
              }
              JOINT lRing1
              {
                OFFSET 8.82822 0.546677 1.51678
                CHANNELS 3 Zrotation Xrotation Yrotation
                JOINT lRing2
                {
                  OFFSET 2.60934 -0.819778 -0.0198488
                  CHANNELS 3 Zrotation Xrotation Yrotation
                  End Site
                  {
                    OFFSET 2.33842 -0.294052 0.168128
                  }
                }
              }
              JOINT lPinky1
              {
                OFFSET 8.27202 -0.0477905 -0.4584
                CHANNELS 3 Zrotation Xrotation Yrotation
                JOINT lPinky2
                {
                  OFFSET 1.82734 -0.647385 -0.700984
                  CHANNELS 3 Zrotation Xrotation Yrotation
                  End Site
                  {
                    OFFSET 1.69225 -0.51767 -0.607171
                  }
                }
              }
            }
          }
        }
      }
    }
  }
  JOINT rButtock
  {
    OFFSET -8.77824 4.35084 1.2192
    CHANNELS 3 Zrotation Xrotation Yrotation
    JOINT rThigh
    {
      OFFSET 0 -1.70687 -2.19456
      CHANNELS 3 Zrotation Xrotation Yrotation
      JOINT rShin
      {
        OFFSET 0 -36.8199 0.73152
        CHANNELS 3 Zrotation Xrotation Yrotation
        JOINT rFoot
        {
          OFFSET 0.73152 -45.1104 -5.12064
          CHANNELS 3 Zrotation Xrotation Yrotation
          End Site
          {
            OFFSET -1.1221 -3.69964 12.103
          }
        }
      }
    }
  }
  JOINT lButtock
  {
    OFFSET 8.77824 4.35084 1.2192
    CHANNELS 3 Zrotation Xrotation Yrotation
    JOINT lThigh
    {
      OFFSET 0 -1.70687 -2.19456
      CHANNELS 3 Zrotation Xrotation Yrotation
      JOINT lShin
      {
        OFFSET 0 -36.8199 0.73152
        CHANNELS 3 Zrotation Xrotation Yrotation
        JOINT lFoot
        {
          OFFSET -0.73152 -45.1104 -5.12064
          CHANNELS 3 Zrotation Xrotation Yrotation
          End Site
          {
            OFFSET 1.1221 -3.69964 12.103
          }
        }
      }
    }
  }
}
MOTION
Frames:	9
Frame Time:	0.00833333
49.4014 85.5269 255.524 0.0 0.0 0.0 2.341 -0.0022241 0.0637213 0.646595 0.00594997 0.111938 3.76965e-14 -1.59028e-15 -1.01877e-15 1.12431e-13 3.18055e-15 -2.95847e-15 -0.0 0.0 0.0 -0.0 0.0 0.0 1.88834e-14 -7.76503e-17 -3.97569e-16 4.02059e-13 -1.45361e-15 -7.95139e-15 6.87407e-12 -2.09738e-12 -2.3218e-13 7.85372e-11 1.76342e-12 -1.91469e-12 1.85277e-10 -7.24741e-13 -4.66905e-12 3.19959e-10 -1.25314e-12 -8.07861e-12 1.85284e-10 -7.18408e-13 -4.68814e-12 7.73091 5.47488 0.417314 1.85278e-10 -7.24173e-13 -4.66905e-12 2.90554 0.965183 0.102902 1.85286e-10 -7.24073e-13 -4.67223e-12 10.2786 0.731801 0.0259123 1.85275e-10 -7.24769e-13 -4.66269e-12 2.22167 -0.733487 -0.20892 1.89863e-14 -7.60973e-17 -5.46658e-16 3.95298e-13 -1.87603e-15 -9.93923e-15 6.85474e-12 1.9952e-12 -2.57625e-13 7.85206e-11 -2.34029e-12 -1.88925e-12 1.85209e-10 -7.45358e-13 -4.68496e-12 3.19849e-10 -1.28812e-12 -8.07861e-12 1.85202e-10 -7.40274e-13 -4.66905e-12 -7.73091 5.47488 -0.417314 1.85207e-10 -7.44449e-13 -4.6786e-12 -2.90554 0.965183 -0.102902 1.85193e-10 -7.44548e-13 -4.6778e-12 -10.2786 0.731801 -0.0259123 1.85207e-10 -7.46635e-13 -4.6786e-12 -2.22167 -0.733487 0.20892 -2.03217e-16 0.0 -3.88251e-19 2.21559 -8.02972 -0.231367 0.00607105 8.97366 0.152066 -0.477797 -0.951447 0.0348755 2.03217e-16 0.0 3.88251e-19 1.35217 -1.92788 -0.00535969 0.00846579 -2.07867 0.0694532 0.423754 3.99898 -0.127274
50.2641 84.283 243.944 -178.713 -3.4334 -178.875 3.09484 0.988795 1.19518 0.374702 -2.10921 0.44506 -1.93651 3.00511 -0.568248 2.58499 -5.0753 -0.632372 -0.0 0.0 0.0 -0.0 0.0 0.0 2.69223e-15 3.21034e-15 6.14439e-14 21.1764 9.49032 -2.05336 -5.8389 -3.08161 8.60631 0.02905 3.78225 0.527385 6.45537e-11 -6.17795e-11 6.99567e-11 1.12385e-10 -1.08797e-10 1.21762e-10 6.4559e-11 -6.17741e-11 6.99411e-11 7.73091 5.47488 0.417314 6.45538e-11 -6.17787e-11 6.99529e-11 2.90554 0.965183 0.102902 6.45626e-11 -6.17789e-11 6.99517e-11 10.2786 0.731801 0.0259123 6.45518e-11 -6.17798e-11 6.996e-11 2.22167 -0.733487 -0.20892 2.73414e-15 3.2127e-15 6.13006e-14 -21.7917 7.58693 2.6553 6.41802 -3.54619 -9.24583 -0.0162099 2.82539 -0.395341 4.40531e-11 -2.59831e-10 1.21697e-10 7.71291e-11 -4.47901e-10 2.11681e-10 4.40465e-11 -2.59825e-10 1.21712e-10 -7.73091 5.47488 -0.417314 4.40526e-11 -2.59827e-10 1.21703e-10 -2.90554 0.965183 -0.102902 4.40428e-11 -2.59825e-10 1.21704e-10 -10.2786 0.731801 -0.0259123 4.40522e-11 -2.59828e-10 1.21701e-10 -2.22167 -0.733487 0.20892 -2.03217e-16 0.0 -3.88251e-19 4.2682 -9.48534 1.60993 0.038584 14.3869 0.270268 -1.64384 -5.78769 -7.31557 2.03217e-16 0.0 3.88251e-19 1.39162 -5.10401 -3.39979 -0.02053 5.80853 -0.107865 0.794017 -2.43201 2.82981
50.269 84.2247 243.909 -178.715 -3.3397 -178.949 3.84831 2.03217 2.38863 0.11202 -4.34387 0.797736 -3.91245 6.1843 -1.16834 5.18457 -10.4222 -1.3111 -0.0 0.0 0.0 -0.0 0.0 0.0 -1.4278e-14 7.41883e-15 1.30247e-13 44.3536 19.4823 -4.42903 -11.0168 -6.10809 17.784 -0.0165783 7.7775 1.09231 -7.33508e-11 -1.19752e-10 1.47151e-10 -1.24847e-10 -2.11276e-10 2.56222e-10 -7.33477e-11 -1.19747e-10 1.47139e-10 7.73091 5.47488 0.417314 -7.33515e-11 -1.19751e-10 1.47143e-10 2.90554 0.965183 0.102902 -7.33416e-11 -1.19751e-10 1.47144e-10 10.2786 0.731801 0.0259123 -7.33529e-11 -1.19752e-10 1.47151e-10 2.22167 -0.733487 -0.20892 -1.42983e-14 7.42214e-15 1.30114e-13 -45.6221 15.5568 5.61457 11.9757 -6.98902 -19.1341 0.00923132 5.805 -0.81553 -1.10602e-10 -5.43022e-10 2.61441e-10 -1.88767e-10 -9.36012e-10 4.54694e-10 -1.10608e-10 -5.43016e-10 2.61456e-10 -7.73091 5.47488 -0.417314 -1.106e-10 -5.43016e-10 2.61446e-10 -2.90554 0.965183 -0.102902 -1.10605e-10 -5.4301e-10 2.61448e-10 -10.2786 0.731801 -0.0259123 -1.10602e-10 -5.43014e-10 2.61442e-10 -2.22167 -0.733487 0.20892 -2.03217e-16 0.0 -3.88251e-19 6.5419 -10.9912 3.57756 0.0471841 20.092 0.404067 -4.23186 -10.6109 -15.2905 2.03217e-16 0.0 3.88251e-19 1.01772 -8.40147 -7.05307 0.00321529 14.1305 -0.303109 1.91217 -9.17642 6.02714
50.2761 84.1584 243.884 -178.714 -3.2495 -178.898 4.48504 2.96607 3.46221 -0.0948885 -6.33851 1.11723 -5.62882 9.01175 -1.72368 7.40855 -15.2183 -1.95838 -0.0 0.0 0.0 -0.0 0.0 0.0 -2.96901e-14 9.78631e-15 1.85127e-13 65.8005 28.3144 -6.90521 -14.8191 -8.41209 26.0827 -0.125248 11.3429 1.61017 -1.76893e-10 -1.83889e-10 2.19208e-10 -3.02763e-10 -3.23883e-10 3.81445e-10 -1.76892e-10 -1.83885e-10 2.192e-10 7.73091 5.47488 0.417314 -1.76894e-10 -1.83888e-10 2.19197e-10 2.90554 0.965183 0.102902 -1.76884e-10 -1.83888e-10 2.19199e-10 10.2786 0.731801 0.0259123 -1.76895e-10 -1.8389e-10 2.19205e-10 2.22167 -0.733487 -0.20892 -2.97702e-14 9.79028e-15 1.84995e-13 -67.6251 22.557 8.55492 15.9304 -9.53211 -28.1056 0.0694316 8.47454 -1.19766 -2.38259e-10 -7.78001e-10 3.74461e-10 -4.08311e-10 -1.34113e-09 6.51199e-10 -2.38265e-10 -7.77996e-10 3.74474e-10 -7.73091 5.47488 -0.417314 -2.38255e-10 -7.77994e-10 3.74465e-10 -2.90554 0.965183 -0.102902 -2.38257e-10 -7.77986e-10 3.74467e-10 -10.2786 0.731801 -0.0259123 -2.38258e-10 -7.7799e-10 3.7446e-10 -2.22167 -0.733487 0.20892 -2.03217e-16 0.0 -3.88251e-19 8.65973 -12.3552 5.34611 0.0292847 25.2128 0.536036 -7.69667 -14.4499 -22.6585 2.03217e-16 0.0 3.88251e-19 0.328671 -11.3011 -10.351 0.0760301 21.5822 -0.495488 3.57144 -15.1211 9.0516
50.2616 84.1094 243.884 -178.794 -3.2534 -178.614 4.91161 3.63066 4.23229 -0.214398 -7.73404 1.34829 -6.82184 10.9631 -2.14945 8.93372 -18.6441 -2.47122 -0.0 0.0 0.0 -0.0 0.0 0.0 -4.12072e-14 7.55129e-15 2.05195e-13 81.2289 34.3972 -8.92409 -17.0544 -9.70497 31.9318 -0.240742 13.8372 1.98379 -1.94529e-10 -2.63439e-10 2.78423e-10 -3.32389e-10 -4.6181e-10 4.83577e-10 -1.94529e-10 -2.63436e-10 2.78416e-10 7.73091 5.47488 0.417314 -1.94531e-10 -2.63438e-10 2.7841e-10 2.90554 0.965183 0.102902 -1.9452e-10 -2.63439e-10 2.78414e-10 10.2786 0.731801 0.0259123 -1.94531e-10 -2.6344e-10 2.78419e-10 2.22167 -0.733487 -0.20892 -4.13409e-14 7.55518e-15 2.05046e-13 -83.4295 27.3244 10.8906 18.1833 -10.8851 -34.4327 0.133747 10.3704 -1.47376 -2.9842e-10 -8.92454e-10 4.2067e-10 -5.11977e-10 -1.53874e-09 7.31435e-10 -2.98427e-10 -8.92447e-10 4.20682e-10 -7.73091 5.47488 -0.417314 -2.98416e-10 -8.92446e-10 4.20673e-10 -2.90554 0.965183 -0.102902 -2.98416e-10 -8.92437e-10 4.20675e-10 -10.2786 0.731801 -0.0259123 -2.98419e-10 -8.92442e-10 4.20667e-10 -2.22167 -0.733487 0.20892 -2.03217e-16 0.0 -3.88251e-19 10.1906 -13.398 6.57721 -0.00108002 28.8737 0.639475 -10.7277 -16.7871 -27.912 2.03217e-16 0.0 3.88251e-19 -0.339206 -13.3508 -12.6168 0.160784 26.8594 -0.647927 5.13625 -19.2383 11.3203
50.3165 84.0638 243.953 -178.843 -2.487 -178.275 5.08433 3.92598 4.58212 -0.23307 -8.28636 1.45426 -7.34065 11.6801 -2.38621 9.59669 -20.1362 -2.76512 -0.0 0.0 0.0 -0.0 0.0 0.0 -4.98832e-14 -8.15022e-16 1.70536e-13 87.2468 36.7593 -9.68593 -17.8401 -10.1223 34.2203 -0.29632 14.8421 2.13753 -5.73218e-11 -4.05381e-10 3.37567e-10 -9.44284e-11 -7.05364e-10 5.83901e-10 -5.73223e-11 -4.05379e-10 3.37561e-10 7.73091 5.47488 0.417314 -5.73237e-11 -4.0538e-10 3.37556e-10 2.90554 0.965183 0.102902 -5.73146e-11 -4.05381e-10 3.37561e-10 10.2786 0.731801 0.0259123 -5.73246e-11 -4.05382e-10 3.37567e-10 2.22167 -0.733487 -0.20892 -5.00758e-14 -8.12463e-16 1.70329e-13 -89.6993 29.0768 11.9344 18.9408 -11.2766 -36.8582 0.168178 11.2487 -1.60311 -2.48202e-10 -8.21114e-10 3.70461e-10 -4.26097e-10 -1.4166e-09 6.43705e-10 -2.48209e-10 -8.21103e-10 3.70473e-10 -7.73091 5.47488 -0.417314 -2.48198e-10 -8.21108e-10 3.70464e-10 -2.90554 0.965183 -0.102902 -2.482e-10 -8.211e-10 3.70466e-10 -10.2786 0.731801 -0.0259123 -2.482e-10 -8.21104e-10 3.70457e-10 -2.22167 -0.733487 0.20892 -2.03217e-16 0.0 -3.88251e-19 10.8159 -13.9987 7.03681 -0.0210352 30.4829 0.687096 -12.0338 -17.6951 -29.8539 2.03217e-16 0.0 3.88251e-19 -0.601954 -14.2962 -13.3364 0.204165 29.0845 -0.716165 5.8705 -20.9334 12.2643
50.2893 83.996 243.901 -178.848 -2.6503 -178.287 5.08458 3.95827 4.63062 -0.185591 -8.23682 1.4696 -7.3933 11.5168 -2.48369 9.67655 -20.2497 -2.88772 -0.0 0.0 0.0 -0.0 0.0 0.0 -5.64054e-14 -1.35757e-14 9.7069e-14 86.272 36.5019 -9.35394 -17.7435 -10.0668 33.9389 -0.292025 14.7837 2.12838 1.88841e-10 -5.89946e-10 3.95809e-10 3.3181e-10 -1.02102e-09 6.8148e-10 1.88841e-10 -5.89944e-10 3.95801e-10 7.73091 5.47488 0.417314 1.88839e-10 -5.89945e-10 3.95802e-10 2.90554 0.965183 0.102902 1.88846e-10 -5.89946e-10 3.95806e-10 10.2786 0.731801 0.0259123 1.88838e-10 -5.89947e-10 3.95815e-10 2.22167 -0.733487 -0.20892 -5.66602e-14 -1.35753e-14 9.67771e-14 -88.9313 28.7258 11.9194 18.8089 -11.1813 -36.4672 0.17182 11.3973 -1.6248 -1.19897e-10 -6.17876e-10 2.51519e-10 -2.06129e-10 -1.06744e-09 4.36248e-10 -1.19906e-10 -6.17861e-10 2.51531e-10 -7.73091 5.47488 -0.417314 -1.19895e-10 -6.17875e-10 2.51522e-10 -2.90554 0.965183 -0.102902 -1.199e-10 -6.1787e-10 2.51523e-10 -10.2786 0.731801 -0.0259123 -1.19895e-10 -6.17872e-10 2.51515e-10 -2.22167 -0.733487 0.20892 -2.03217e-16 0.0 -3.88251e-19 10.7696 -14.2896 6.93881 -0.0257701 30.6272 0.689906 -11.8627 -17.7692 -29.3495 2.03217e-16 0.0 3.88251e-19 -0.487803 -14.4806 -12.9247 0.20161 29.1303 -0.714459 5.8329 -20.9406 12.1781
50.31 83.9245 243.887 -178.786 -2.4841 -178.165 5.01029 3.87796 4.54679 -0.115072 -7.95462 1.44468 -7.2603 11.0175 -2.51701 9.52738 -19.8446 -2.9225 -0.0 0.0 0.0 -0.0 0.0 0.0 -5.7887e-14 -2.85937e-14 1.76701e-14 82.5359 35.1859 -8.62216 -17.2942 -9.82236 32.6337 -0.263005 14.2879 2.05216 4.23267e-10 -7.26257e-10 4.25034e-10 7.37388e-10 -1.25324e-09 7.29132e-10 4.23267e-10 -7.26255e-10 4.25024e-10 7.73091 5.47488 0.417314 4.23265e-10 -7.26256e-10 4.25031e-10 2.90554 0.965183 0.102902 4.2327e-10 -7.26256e-10 4.25035e-10 10.2786 0.731801 0.0259123 4.23263e-10 -7.26257e-10 4.25046e-10 2.22167 -0.733487 -0.20892 -5.81826e-14 -2.85955e-14 1.7302e-14 -85.3628 27.5949 11.5039 18.336 -10.9078 -34.9982 0.158928 11.1511 -1.58803 1.42238e-11 -3.89167e-10 1.09697e-10 2.37712e-11 -6.74313e-10 1.89199e-10 1.42127e-11 -3.89148e-10 1.09707e-10 -7.73091 5.47488 -0.417314 1.42238e-11 -3.8917e-10 1.09699e-10 -2.90554 0.965183 -0.102902 1.42141e-11 -3.89168e-10 1.097e-10 -10.2786 0.731801 -0.0259123 1.42247e-11 -3.8917e-10 1.09693e-10 -2.22167 -0.733487 0.20892 -2.03217e-16 0.0 -3.88251e-19 10.4417 -14.4759 6.61337 -0.0240241 30.1982 0.674842 -11.1032 -17.4884 -27.8881 2.03217e-16 0.0 3.88251e-19 -0.23728 -14.3789 -12.0737 0.180053 28.3173 -0.68455 5.4843 -20.2693 11.6833
50.3578 83.8644 243.896 -178.664 -2.1648 -178.012 4.95743 3.83525 4.49988 -0.0636933 -7.80892 1.43 -7.21764 10.7263 -2.5621 9.49137 -19.7799 -2.95781 -0.0 0.0 0.0 -0.0 0.0 0.0 -5.14409e-14 -4.37319e-14 -3.47873e-14 80.2523 34.3781 -8.17666 -17.0174 -9.66784 31.8512 -0.245898 13.9809 2.00524 5.25262e-10 -7.23436e-10 3.97127e-10 9.13366e-10 -1.24646e-09 6.79674e-10 5.25263e-10 -7.23434e-10 3.97118e-10 7.73091 5.47488 0.417314 5.2526e-10 -7.23435e-10 3.97127e-10 2.90554 0.965183 0.102902 5.25264e-10 -7.23436e-10 3.97131e-10 10.2786 0.731801 0.0259123 5.25258e-10 -7.23437e-10 3.97143e-10 2.22167 -0.733487 -0.20892 -5.17317e-14 -4.37352e-14 -3.51849e-14 -83.2419 27.0031 11.3493 18.0749 -10.7674 -34.1884 0.146454 10.8448 -1.54279 8.18881e-11 -2.41414e-10 -9.15682e-12 1.39448e-10 -4.20247e-10 -1.73078e-11 8.18762e-11 -2.41394e-10 -9.14727e-12 -7.73091 5.47488 -0.417314 8.18871e-11 -2.41419e-10 -9.15364e-12 -2.90554 0.965183 -0.102902 8.18747e-11 -2.41419e-10 -9.15364e-12 -10.2786 0.731801 -0.0259123 8.18889e-11 -2.41419e-10 -9.16e-12 -2.22167 -0.733487 0.20892 -2.03217e-16 0.0 -3.88251e-19 10.2298 -14.7621 6.39303 -0.025996 30.0878 0.669829 -10.6588 -17.3315 -26.9679 2.03217e-16 0.0 3.88251e-19 -0.0960757 -14.4681 -11.479 0.168561 27.9659 -0.669587 5.30275 -19.9251 11.4115
